<svg width="316" height="251" viewBox="0 0 316 251" fill="none" xmlns="http://www.w3.org/2000/svg">
<path d="M110.551 171H104.857V196.137C104.857 196.208 104.822 196.244 104.75 196.244H65.8633V171H15.6973C15.6257 171 15.5898 170.964 15.5898 170.893V81.8398C15.5898 81.7682 15.6257 81.7324 15.6973 81.7324H104.857V132.006H110.551V171ZM54.584 132.006H65.9707V120.619H54.584V132.006ZM118.5 70.3516V57.8906H129.135V45.2148C129.135 45.1432 129.171 45.1074 129.242 45.1074H152.768C152.839 45.1074 152.875 45.1432 152.875 45.2148V70.2441C152.875 70.3158 152.839 70.3516 152.768 70.3516H118.5ZM121.938 210.961C121.866 210.961 121.83 210.925 121.83 210.854V183.139C121.83 183.067 121.866 183.031 121.938 183.031H149.652C149.724 183.031 149.76 183.067 149.76 183.139V210.854C149.76 210.925 149.724 210.961 149.652 210.961H121.938ZM105.18 171V132.006H116.244V81.7324H155.346V170.893C155.346 170.964 155.31 171 155.238 171H105.18ZM205.189 81.7324V196.137C205.189 196.208 205.154 196.244 205.082 196.244H166.195V81.7324H205.189ZM216.146 171C216.075 171 216.039 170.964 216.039 170.893V56.7031C216.039 56.6315 216.075 56.5957 216.146 56.5957H255.033V132.006H260.727V171H216.146ZM262.445 203.656C262.374 203.656 262.338 203.62 262.338 203.549V182.924C262.338 182.852 262.374 182.816 262.445 182.816H283.178C283.249 182.816 283.285 182.816 283.285 182.816H309.604C309.675 182.816 309.711 182.852 309.711 182.924V203.549C309.711 203.62 309.675 203.656 309.604 203.656H283.285C283.214 203.656 283.178 203.656 283.178 203.656H262.445ZM255.355 171V132.006H266.42V81.7324H305.521V170.893C305.521 170.964 305.486 171 305.414 171H255.355Z" fill="#2FC179"/>
<path d="M115.551 176H109.857V201.137C109.857 201.208 109.822 201.244 109.75 201.244H70.8633V176H20.6973C20.6257 176 20.5898 175.964 20.5898 175.893V86.8398C20.5898 86.7682 20.6257 86.7324 20.6973 86.7324H109.857V137.006H115.551V176ZM59.584 137.006H70.9707V125.619H59.584V137.006ZM123.5 75.3516V62.8906H134.135V50.2148C134.135 50.1432 134.171 50.1074 134.242 50.1074H157.768C157.839 50.1074 157.875 50.1432 157.875 50.2148V75.2441C157.875 75.3158 157.839 75.3516 157.768 75.3516H123.5ZM126.938 215.961C126.866 215.961 126.83 215.925 126.83 215.854V188.139C126.83 188.067 126.866 188.031 126.938 188.031H154.652C154.724 188.031 154.76 188.067 154.76 188.139V215.854C154.76 215.925 154.724 215.961 154.652 215.961H126.938ZM110.18 176V137.006H121.244V86.7324H160.346V175.893C160.346 175.964 160.31 176 160.238 176H110.18ZM210.189 86.7324V201.137C210.189 201.208 210.154 201.244 210.082 201.244H171.195V86.7324H210.189ZM221.146 176C221.075 176 221.039 175.964 221.039 175.893V61.7031C221.039 61.6315 221.075 61.5957 221.146 61.5957H260.033V137.006H265.727V176H221.146ZM267.445 208.656C267.374 208.656 267.338 208.62 267.338 208.549V187.924C267.338 187.852 267.374 187.816 267.445 187.816H288.178C288.249 187.816 288.285 187.816 288.285 187.816H314.604C314.675 187.816 314.711 187.852 314.711 187.924V208.549C314.711 208.62 314.675 208.656 314.604 208.656H288.285C288.214 208.656 288.178 208.656 288.178 208.656H267.445ZM260.355 176V137.006H271.42V86.7324H310.521V175.893C310.521 175.964 310.486 176 310.414 176H260.355Z" fill="#B53F3F"/>
<path d="M105.551 166H99.8574V191.137C99.8574 191.208 99.8216 191.244 99.75 191.244H60.8633V166H10.6973C10.6257 166 10.5898 165.964 10.5898 165.893V76.8398C10.5898 76.7682 10.6257 76.7324 10.6973 76.7324H99.8574V127.006H105.551V166ZM49.584 127.006H60.9707V115.619H49.584V127.006ZM113.5 65.3516V52.8906H124.135V40.2148C124.135 40.1432 124.171 40.1074 124.242 40.1074H147.768C147.839 40.1074 147.875 40.1432 147.875 40.2148V65.2441C147.875 65.3158 147.839 65.3516 147.768 65.3516H113.5ZM116.938 205.961C116.866 205.961 116.83 205.925 116.83 205.854V178.139C116.83 178.067 116.866 178.031 116.938 178.031H144.652C144.724 178.031 144.76 178.067 144.76 178.139V205.854C144.76 205.925 144.724 205.961 144.652 205.961H116.938ZM100.18 166V127.006H111.244V76.7324H150.346V165.893C150.346 165.964 150.31 166 150.238 166H100.18ZM200.189 76.7324V191.137C200.189 191.208 200.154 191.244 200.082 191.244H161.195V76.7324H200.189ZM211.146 166C211.075 166 211.039 165.964 211.039 165.893V51.7031C211.039 51.6315 211.075 51.5957 211.146 51.5957H250.033V127.006H255.727V166H211.146ZM257.445 198.656C257.374 198.656 257.338 198.62 257.338 198.549V177.924C257.338 177.852 257.374 177.816 257.445 177.816H278.178C278.249 177.816 278.285 177.816 278.285 177.816H304.604C304.675 177.816 304.711 177.852 304.711 177.924V198.549C304.711 198.62 304.675 198.656 304.604 198.656H278.285C278.214 198.656 278.178 198.656 278.178 198.656H257.445ZM250.355 166V127.006H261.42V76.7324H300.521V165.893C300.521 165.964 300.486 166 300.414 166H250.355Z" fill="#3A8DE5"/>
<path d="M100.551 161H94.8574V186.137C94.8574 186.208 94.8216 186.244 94.75 186.244H55.8633V161H5.69727C5.62565 161 5.58984 160.964 5.58984 160.893V71.8398C5.58984 71.7682 5.62565 71.7324 5.69727 71.7324H94.8574V122.006H100.551V161ZM44.584 122.006H55.9707V110.619H44.584V122.006ZM108.5 60.3516V47.8906H119.135V35.2148C119.135 35.1432 119.171 35.1074 119.242 35.1074H142.768C142.839 35.1074 142.875 35.1432 142.875 35.2148V60.2441C142.875 60.3158 142.839 60.3516 142.768 60.3516H108.5ZM111.938 200.961C111.866 200.961 111.83 200.925 111.83 200.854V173.139C111.83 173.067 111.866 173.031 111.938 173.031H139.652C139.724 173.031 139.76 173.067 139.76 173.139V200.854C139.76 200.925 139.724 200.961 139.652 200.961H111.938ZM95.1797 161V122.006H106.244V71.7324H145.346V160.893C145.346 160.964 145.31 161 145.238 161H95.1797ZM195.189 71.7324V186.137C195.189 186.208 195.154 186.244 195.082 186.244H156.195V71.7324H195.189ZM206.146 161C206.075 161 206.039 160.964 206.039 160.893V46.7031C206.039 46.6315 206.075 46.5957 206.146 46.5957H245.033V122.006H250.727V161H206.146ZM252.445 193.656C252.374 193.656 252.338 193.62 252.338 193.549V172.924C252.338 172.852 252.374 172.816 252.445 172.816H273.178C273.249 172.816 273.285 172.816 273.285 172.816H299.604C299.675 172.816 299.711 172.852 299.711 172.924V193.549C299.711 193.62 299.675 193.656 299.604 193.656H273.285C273.214 193.656 273.178 193.656 273.178 193.656H252.445ZM245.355 161V122.006H256.42V71.7324H295.521V160.893C295.521 160.964 295.486 161 295.414 161H245.355Z" fill="white"/>
</svg>
