<svg width="30" height="30" viewBox="0 0 30 30" fill="none" xmlns="http://www.w3.org/2000/svg">
<path d="M14.625 3.50625C14.7433 3.45462 14.871 3.42798 15 3.42798C15.1291 3.42798 15.2567 3.45462 15.375 3.50625C19.9976 5.52675 24.4069 8.00361 28.5375 10.9C28.6831 11.0021 28.7966 11.1434 28.8649 11.3076C28.9331 11.4718 28.9533 11.652 28.923 11.8272C28.8928 12.0024 28.8133 12.1654 28.6939 12.2971C28.5745 12.4288 28.4201 12.5239 28.2488 12.5712C23.9605 13.7556 19.8111 15.3949 15.8713 17.4612L15.8675 17.4637L15.4425 17.6887C15.3066 17.7614 15.1548 17.7994 15.0006 17.7994C14.8465 17.7994 14.6947 17.7614 14.5588 17.6887C12.8696 16.786 11.1399 15.9614 9.37502 15.2175V14.9375C9.37502 14.7737 9.45877 14.6275 9.59002 14.5487C11.4767 13.4054 13.4178 12.3542 15.4063 11.3987C15.6304 11.291 15.8025 11.0986 15.8848 10.864C15.9671 10.6293 15.9528 10.3716 15.845 10.1475C15.7373 9.92339 15.5449 9.75126 15.3103 9.66898C15.0756 9.5867 14.8179 9.601 14.5938 9.70875C12.551 10.6904 10.557 11.7704 8.61877 12.945C8.34302 13.1123 8.10513 13.3352 7.92027 13.5994C7.7354 13.8637 7.6076 14.1636 7.54501 14.48C5.64653 13.7495 3.71337 13.1125 1.75251 12.5712C1.58113 12.5239 1.42674 12.4288 1.30736 12.2971C1.18797 12.1654 1.1085 12.0024 1.07823 11.8272C1.04796 11.652 1.06814 11.4718 1.1364 11.3076C1.20466 11.1434 1.3182 11.0021 1.46376 10.9C5.59395 8.0037 10.0029 5.52684 14.625 3.50625Z" fill="white"/>
<path d="M16.325 19.3412C19.3953 17.7009 22.6014 16.3283 25.9075 15.2387C26.075 17.0062 26.1825 18.7925 26.2263 20.595C26.2309 20.7836 26.1784 20.9692 26.0758 21.1275C25.9733 21.2859 25.8253 21.4096 25.6513 21.4825C22.1079 22.9624 18.7152 24.78 15.52 26.91C15.366 27.0126 15.1851 27.0674 15 27.0674C14.8149 27.0674 14.634 27.0126 14.48 26.91C11.2853 24.78 7.89297 22.9625 4.35001 21.4825C4.17576 21.4098 4.02752 21.2862 3.9247 21.1278C3.82188 20.9695 3.76928 20.7837 3.77376 20.595C3.81751 18.7925 3.92501 17.0075 4.09251 15.2375C5.24045 15.6159 6.3768 16.0285 7.50001 16.475V18.0625C7.22993 18.2181 7.0029 18.4386 6.83947 18.704C6.67603 18.9694 6.58135 19.2714 6.56397 19.5826C6.5466 19.8938 6.60709 20.2045 6.73997 20.4864C6.87285 20.7684 7.07393 21.0128 7.32501 21.1975C7.21251 21.6725 7.04751 22.1387 6.82876 22.585C7.39376 22.8512 7.95501 23.1275 8.51126 23.4112C8.82489 22.773 9.05632 22.0977 9.20001 21.4012C9.51612 21.2607 9.78718 21.0354 9.9832 20.7504C10.1792 20.4653 10.2926 20.1316 10.3107 19.7861C10.3288 19.4407 10.251 19.0969 10.0858 18.7929C9.9207 18.4889 9.67469 18.2366 9.37501 18.0637V17.2575C10.8352 17.8958 12.2696 18.5913 13.675 19.3425C14.0827 19.5602 14.5378 19.6742 15 19.6742C15.4622 19.6742 15.9173 19.5602 16.325 19.3425V19.3412Z" fill="white"/>
<path d="M5.5775 24.3275C6.1025 23.8038 6.51875 23.215 6.8275 22.585C7.39375 22.8513 7.955 23.1275 8.51125 23.4113C8.10223 24.242 7.55912 24.9996 6.90375 25.6538C6.81792 25.7459 6.71442 25.8198 6.59942 25.871C6.48442 25.9222 6.36028 25.9498 6.2344 25.952C6.10852 25.9542 5.98349 25.9311 5.86675 25.8839C5.75002 25.8368 5.64398 25.7666 5.55495 25.6776C5.46593 25.5885 5.39575 25.4825 5.3486 25.3658C5.30145 25.249 5.27829 25.124 5.28051 24.9981C5.28273 24.8722 5.31028 24.7481 5.36152 24.6331C5.41276 24.5181 5.48664 24.4146 5.57875 24.3288L5.5775 24.3275Z" fill="white"/>
</svg>
