<svg width="25" height="25" viewBox="0 0 25 25" fill="none" xmlns="http://www.w3.org/2000/svg">
<path fill-rule="evenodd" clip-rule="evenodd" d="M13.2201 22.0833C13.0736 22.2296 12.875 22.3118 12.668 22.3118C12.461 22.3118 12.2624 22.2296 12.1159 22.0833L8.20968 18.1771C8.07168 18.029 7.99656 17.8331 8.00013 17.6307C8.0037 17.4283 8.08569 17.2352 8.22883 17.0921C8.37197 16.9489 8.56508 16.8669 8.76747 16.8634C8.96987 16.8598 9.16575 16.9349 9.31385 17.0729L11.8868 19.6458L11.8868 2.78125C11.8868 2.57405 11.9691 2.37533 12.1156 2.22882C12.2621 2.08231 12.4608 2 12.668 2C12.8752 2 13.0739 2.08231 13.2204 2.22882C13.367 2.37533 13.4493 2.57405 13.4493 2.78125L13.4493 19.6458L16.0222 17.0729C16.1703 16.9349 16.3662 16.8598 16.5686 16.8634C16.771 16.8669 16.9641 16.9489 17.1072 17.0921C17.2503 17.2352 17.3323 17.4283 17.3359 17.6307C17.3395 17.8331 17.2644 18.029 17.1264 18.1771L13.2201 22.0833Z" fill="white"/>
</svg>
