<svg width="30" height="30" viewBox="0 0 30 30" fill="none" xmlns="http://www.w3.org/2000/svg">
<g id="Frame">
<path id="Vector" d="M14.5563 26.1375L14.5475 26.1338L14.52 26.1188C14.3591 26.0303 14.1995 25.9394 14.0413 25.8463C12.1385 24.7156 10.3603 23.3875 8.73625 21.8838C5.86 19.2 2.8125 15.2175 2.8125 10.3125C2.8125 6.65253 5.8925 3.75003 9.61 3.75003C10.6434 3.74497 11.6647 3.97295 12.5979 4.41703C13.5311 4.86112 14.3521 5.50986 15 6.31503C15.648 5.5097 16.4693 4.86085 17.4027 4.41676C18.3361 3.97267 19.3576 3.74478 20.3913 3.75003C24.1075 3.75003 27.1875 6.65253 27.1875 10.3125C27.1875 15.2188 24.14 19.2013 21.2638 21.8825C19.6397 23.3862 17.8615 24.7144 15.9587 25.845C15.8005 25.9386 15.6409 26.0298 15.48 26.1188L15.4525 26.1338L15.4437 26.1388L15.44 26.14C15.3045 26.2118 15.1534 26.2494 15 26.2494C14.8466 26.2494 14.6955 26.2118 14.56 26.14L14.5563 26.1375Z" fill="white"/>
</g>
</svg>
