<svg width="30" height="30" viewBox="0 0 30 30" fill="none" xmlns="http://www.w3.org/2000/svg">
<g id="Frame">
<path id="Vector" fill-rule="evenodd" clip-rule="evenodd" d="M3.75 7.5C3.75 6.50544 4.14509 5.55161 4.84835 4.84835C5.55161 4.14509 6.50544 3.75 7.5 3.75H22.5C23.4946 3.75 24.4484 4.14509 25.1517 4.84835C25.8549 5.55161 26.25 6.50544 26.25 7.5V22.5C26.25 23.4946 25.8549 24.4484 25.1517 25.1517C24.4484 25.8549 23.4946 26.25 22.5 26.25H7.5C6.50544 26.25 5.55161 25.8549 4.84835 25.1517C4.14509 24.4484 3.75 23.4946 3.75 22.5V7.5ZM21.5625 15C21.5623 15.2486 21.4634 15.4869 21.2875 15.6625L18.475 18.475C18.3892 18.5671 18.2857 18.641 18.1707 18.6922C18.0557 18.7435 17.9315 18.771 17.8057 18.7732C17.6798 18.7755 17.5547 18.7523 17.438 18.7052C17.3213 18.658 17.2152 18.5878 17.1262 18.4988C17.0372 18.4098 16.967 18.3037 16.9198 18.187C16.8727 18.0703 16.8495 17.9452 16.8518 17.8193C16.854 17.6935 16.8815 17.5693 16.9328 17.4543C16.984 17.3393 17.0579 17.2358 17.15 17.15L19.3 15L17.15 12.85C17.0579 12.7642 16.984 12.6607 16.9328 12.5457C16.8815 12.4307 16.854 12.3065 16.8518 12.1807C16.8495 12.0548 16.8727 11.9297 16.9198 11.813C16.967 11.6963 17.0372 11.5902 17.1262 11.5012C17.2152 11.4122 17.3213 11.342 17.438 11.2948C17.5547 11.2477 17.6798 11.2245 17.8057 11.2268C17.9315 11.229 18.0557 11.2565 18.1707 11.3078C18.2857 11.359 18.3892 11.4329 18.475 11.525L21.2875 14.3375C21.4638 14.5125 21.5625 14.7513 21.5625 15ZM8.7125 14.3375C8.53694 14.5133 8.43832 14.7516 8.43832 15C8.43832 15.2484 8.53694 15.4867 8.7125 15.6625L11.525 18.475C11.6108 18.5671 11.7143 18.641 11.8293 18.6922C11.9443 18.7435 12.0685 18.771 12.1943 18.7732C12.3202 18.7755 12.4453 18.7523 12.562 18.7052C12.6787 18.658 12.7848 18.5878 12.8738 18.4988C12.9628 18.4098 13.033 18.3037 13.0802 18.187C13.1273 18.0703 13.1505 17.9452 13.1482 17.8193C13.146 17.6935 13.1185 17.5693 13.0672 17.4543C13.016 17.3393 12.9421 17.2358 12.85 17.15L10.7 15L12.85 12.85C12.9421 12.7642 13.016 12.6607 13.0672 12.5457C13.1185 12.4307 13.146 12.3065 13.1482 12.1807C13.1505 12.0548 13.1273 11.9297 13.0802 11.813C13.033 11.6963 12.9628 11.5902 12.8738 11.5012C12.7848 11.4122 12.6787 11.342 12.562 11.2948C12.4453 11.2477 12.3202 11.2245 12.1943 11.2268C12.0685 11.229 11.9443 11.2565 11.8293 11.3078C11.7143 11.359 11.6108 11.4329 11.525 11.525L8.7125 14.3375Z" fill="white"/>
</g>
</svg>
