<svg width="30" height="30" viewBox="0 0 30 30" fill="none" xmlns="http://www.w3.org/2000/svg">
<g id="Frame">
<path id="Vector" fill-rule="evenodd" clip-rule="evenodd" d="M14.5275 2.00247C14.6709 1.91879 14.834 1.87469 15 1.87469C15.166 1.87469 15.3291 1.91879 15.4725 2.00247L18.285 3.64372C18.493 3.77231 18.6425 3.97708 18.7017 4.21435C18.7608 4.45162 18.7249 4.70261 18.6017 4.9138C18.4784 5.12498 18.2775 5.27963 18.0418 5.34477C17.8061 5.40991 17.5542 5.38038 17.34 5.26247L15 3.89747L12.66 5.26247C12.5536 5.32826 12.4351 5.37208 12.3115 5.39136C12.1878 5.41063 12.0616 5.40497 11.9402 5.3747C11.8188 5.34444 11.7047 5.29018 11.6046 5.21513C11.5045 5.14008 11.4205 5.04575 11.3574 4.9377C11.2943 4.82966 11.2535 4.71008 11.2374 4.58601C11.2212 4.46195 11.2301 4.33591 11.2634 4.21532C11.2967 4.09473 11.3539 3.98203 11.4314 3.88386C11.509 3.7857 11.6054 3.70405 11.715 3.64372L14.5275 2.00247ZM7.3725 7.26247C7.49748 7.47717 7.53214 7.7327 7.46886 7.97293C7.40558 8.21316 7.24953 8.41846 7.035 8.54372L5.61 9.37497L7.035 10.2062C7.14461 10.2665 7.24103 10.3482 7.31859 10.4464C7.39615 10.5445 7.45328 10.6572 7.4866 10.7778C7.51993 10.8984 7.52878 11.0244 7.51264 11.1485C7.4965 11.2726 7.45568 11.3922 7.39261 11.5002C7.32953 11.6082 7.24547 11.7026 7.14537 11.7776C7.04527 11.8527 6.93117 11.9069 6.80977 11.9372C6.68838 11.9675 6.56216 11.9731 6.43854 11.9539C6.31492 11.9346 6.19642 11.8908 6.09 11.825L4.6875 11.0075V12.1875C4.6875 12.4361 4.58873 12.6746 4.41291 12.8504C4.2371 13.0262 3.99864 13.125 3.75 13.125C3.50136 13.125 3.2629 13.0262 3.08709 12.8504C2.91127 12.6746 2.8125 12.4361 2.8125 12.1875V9.37497C2.81245 9.21109 2.85536 9.05007 2.93695 8.90794C3.01854 8.76582 3.13596 8.64757 3.2775 8.56497L6.09 6.92497C6.19636 6.86289 6.31391 6.82237 6.43594 6.80574C6.55797 6.7891 6.68207 6.79667 6.80117 6.82801C6.92027 6.85935 7.03203 6.91386 7.13006 6.9884C7.22809 7.06295 7.31047 7.15608 7.3725 7.26247ZM22.6275 7.26247C22.6895 7.15608 22.7719 7.06295 22.8699 6.9884C22.968 6.91386 23.0797 6.85935 23.1988 6.82801C23.3179 6.79667 23.442 6.7891 23.5641 6.80574C23.6861 6.82237 23.8036 6.86289 23.91 6.92497L26.7225 8.56497C26.864 8.64757 26.9815 8.76582 27.063 8.90794C27.1446 9.05007 27.1875 9.21109 27.1875 9.37497V12.1875C27.1875 12.4361 27.0887 12.6746 26.9129 12.8504C26.7371 13.0262 26.4986 13.125 26.25 13.125C26.0014 13.125 25.7629 13.0262 25.5871 12.8504C25.4113 12.6746 25.3125 12.4361 25.3125 12.1875V11.0075L23.91 11.825C23.8036 11.8908 23.6851 11.9346 23.5615 11.9539C23.4378 11.9731 23.3116 11.9675 23.1902 11.9372C23.0688 11.9069 22.9547 11.8527 22.8546 11.7776C22.7545 11.7026 22.6705 11.6082 22.6074 11.5002C22.5443 11.3922 22.5035 11.2726 22.4874 11.1485C22.4712 11.0244 22.4801 10.8984 22.5134 10.7778C22.5467 10.6572 22.6039 10.5445 22.6814 10.4464C22.759 10.3482 22.8554 10.2665 22.965 10.2062L24.39 9.37497L22.965 8.54372C22.7505 8.41846 22.5944 8.21316 22.5311 7.97293C22.4679 7.7327 22.5025 7.47717 22.6275 7.26247ZM11.3775 13.825C11.4395 13.7186 11.5219 13.6254 11.6199 13.5509C11.718 13.4764 11.8297 13.4219 11.9488 13.3905C12.0679 13.3592 12.192 13.3516 12.3141 13.3682C12.4361 13.3849 12.5536 13.4254 12.66 13.4875L15 14.8525L17.34 13.4875C17.4464 13.4217 17.5649 13.3779 17.6885 13.3586C17.8122 13.3393 17.9384 13.345 18.0598 13.3752C18.1812 13.4055 18.2953 13.4598 18.3954 13.5348C18.4955 13.6099 18.5795 13.7042 18.6426 13.8122C18.7057 13.9203 18.7465 14.0399 18.7626 14.1639C18.7788 14.288 18.7699 14.414 18.7366 14.5346C18.7033 14.6552 18.6461 14.7679 18.5686 14.8661C18.491 14.9642 18.3946 15.0459 18.285 15.1062L15.9375 16.4762V18.75C15.9375 18.9986 15.8387 19.2371 15.6629 19.4129C15.4871 19.5887 15.2486 19.6875 15 19.6875C14.7514 19.6875 14.5129 19.5887 14.3371 19.4129C14.1613 19.2371 14.0625 18.9986 14.0625 18.75V16.475L11.715 15.1062C11.5005 14.981 11.3444 14.7757 11.2811 14.5354C11.2179 14.2952 11.2525 14.0397 11.3775 13.825ZM3.75 16.875C3.99864 16.875 4.2371 16.9737 4.41291 17.1496C4.58873 17.3254 4.6875 17.5638 4.6875 17.8125V20.0875L7.035 21.4562C7.14461 21.5165 7.24103 21.5982 7.31859 21.6964C7.39615 21.7945 7.45328 21.9072 7.4866 22.0278C7.51993 22.1484 7.52878 22.2745 7.51264 22.3985C7.4965 22.5226 7.45568 22.6422 7.39261 22.7502C7.32953 22.8582 7.24547 22.9526 7.14537 23.0276C7.04527 23.1027 6.93117 23.1569 6.80977 23.1872C6.68838 23.2175 6.56216 23.2231 6.43854 23.2039C6.31492 23.1846 6.19642 23.1408 6.09 23.075L3.2775 21.435C3.13596 21.3524 3.01854 21.2341 2.93695 21.092C2.85536 20.9499 2.81245 20.7889 2.8125 20.625V17.8125C2.8125 17.5638 2.91127 17.3254 3.08709 17.1496C3.2629 16.9737 3.50136 16.875 3.75 16.875ZM26.25 16.875C26.4986 16.875 26.7371 16.9737 26.9129 17.1496C27.0887 17.3254 27.1875 17.5638 27.1875 17.8125V20.625C27.1875 20.7889 27.1446 20.9499 27.063 21.092C26.9815 21.2341 26.864 21.3524 26.7225 21.435L23.91 23.075C23.8036 23.1408 23.6851 23.1846 23.5615 23.2039C23.4378 23.2231 23.3116 23.2175 23.1902 23.1872C23.0688 23.1569 22.9547 23.1027 22.8546 23.0276C22.7545 22.9526 22.6705 22.8582 22.6074 22.7502C22.5443 22.6422 22.5035 22.5226 22.4874 22.3985C22.4712 22.2745 22.4801 22.1484 22.5134 22.0278C22.5467 21.9072 22.6039 21.7945 22.6814 21.6964C22.759 21.5982 22.8554 21.5165 22.965 21.4562L25.3125 20.0862V17.8125C25.3125 17.5638 25.4113 17.3254 25.5871 17.1496C25.7629 16.9737 26.0014 16.875 26.25 16.875ZM15 23.4375C15.2486 23.4375 15.4871 23.5362 15.6629 23.7121C15.8387 23.8879 15.9375 24.1263 15.9375 24.375V25.555L17.34 24.7375C17.4464 24.6717 17.5649 24.6279 17.6885 24.6086C17.8122 24.5893 17.9384 24.595 18.0598 24.6252C18.1812 24.6555 18.2953 24.7098 18.3954 24.7848C18.4955 24.8599 18.5795 24.9542 18.6426 25.0622C18.7057 25.1703 18.7465 25.2899 18.7626 25.4139C18.7788 25.538 18.7699 25.664 18.7366 25.7846C18.7033 25.9052 18.6461 26.0179 18.5686 26.1161C18.491 26.2142 18.3946 26.2959 18.285 26.3562L15.4725 27.9975C15.3291 28.0812 15.166 28.1253 15 28.1253C14.834 28.1253 14.6709 28.0812 14.5275 27.9975L11.715 26.3562C11.6054 26.2959 11.509 26.2142 11.4314 26.1161C11.3539 26.0179 11.2967 25.9052 11.2634 25.7846C11.2301 25.664 11.2212 25.538 11.2374 25.4139C11.2535 25.2899 11.2943 25.1703 11.3574 25.0622C11.4205 24.9542 11.5045 24.8599 11.6046 24.7848C11.7047 24.7098 11.8188 24.6555 11.9402 24.6252C12.0616 24.595 12.1878 24.5893 12.3115 24.6086C12.4351 24.6279 12.5536 24.6717 12.66 24.7375L14.0625 25.555V24.375C14.0625 24.1263 14.1613 23.8879 14.3371 23.7121C14.5129 23.5362 14.7514 23.4375 15 23.4375Z" fill="white"/>
</g>
</svg>
