<svg width="30" height="30" viewBox="0 0 30 30" fill="none" xmlns="http://www.w3.org/2000/svg">
<g id="Frame">
<path id="Vector" d="M14.0625 6.67125C14.0625 6.2275 13.83 5.82625 13.5612 5.4725C13.2814 5.11421 13.128 4.67337 13.125 4.21875C13.125 2.92375 14.3837 1.875 15.9375 1.875C17.4913 1.875 18.75 2.925 18.75 4.21875C18.75 4.68 18.59 5.11 18.3137 5.4725C18.045 5.82625 17.8125 6.2275 17.8125 6.67125C17.8125 7.08625 18.16 7.41875 18.575 7.39375C20.9625 7.25125 23.3125 6.96625 25.615 6.54875C25.7404 6.52601 25.8691 6.52909 25.9933 6.55779C26.1175 6.58649 26.2345 6.64021 26.3373 6.71567C26.44 6.79114 26.5262 6.88675 26.5908 6.99667C26.6553 7.1066 26.6967 7.22852 26.7125 7.355C26.9954 9.6162 27.1523 11.8914 27.1825 14.17C27.1837 14.2789 27.1632 14.3869 27.1222 14.4878C27.0812 14.5887 27.0205 14.6805 26.9438 14.7577C26.867 14.835 26.7756 14.8962 26.675 14.9377C26.5743 14.9793 26.4664 15.0005 26.3575 15C25.915 15 25.5138 14.7675 25.16 14.4987C24.8017 14.2189 24.3609 14.0655 23.9062 14.0625C22.6125 14.0625 21.5625 15.3212 21.5625 16.875C21.5625 18.4287 22.6125 19.6875 23.9062 19.6875C24.3675 19.6875 24.7975 19.5275 25.16 19.2512C25.5138 18.9825 25.915 18.75 26.3587 18.75C26.7463 18.75 27.055 19.0775 27.0263 19.4638C26.8796 21.4936 26.6313 23.5149 26.2825 25.52C26.2493 25.7101 26.1583 25.8854 26.0219 26.0219C25.8854 26.1583 25.7101 26.2493 25.52 26.2825C23.245 26.6787 20.9287 26.9487 18.5763 27.085C18.4777 27.0903 18.3792 27.0754 18.2866 27.0412C18.194 27.0071 18.1094 26.9544 18.0379 26.8864C17.9664 26.8184 17.9095 26.7366 17.8708 26.6458C17.832 26.5551 17.8122 26.4574 17.8125 26.3587C17.8125 25.915 18.045 25.5138 18.3137 25.16C18.59 24.7975 18.75 24.3675 18.75 23.9062C18.75 22.6125 17.4913 21.5625 15.9375 21.5625C14.3837 21.5625 13.125 22.6125 13.125 23.9062C13.125 24.3675 13.285 24.7975 13.5612 25.16C13.83 25.5138 14.0625 25.915 14.0625 26.3587C14.0629 26.466 14.0417 26.5722 14.0003 26.6711C13.9588 26.7701 13.898 26.8596 13.8213 26.9346C13.7446 27.0096 13.6536 27.0683 13.5537 27.1075C13.4539 27.1466 13.3472 27.1653 13.24 27.1625C11.2723 27.1069 9.30832 26.9568 7.355 26.7125C7.22852 26.6967 7.1066 26.6553 6.99667 26.5908C6.88675 26.5262 6.79114 26.44 6.71567 26.3373C6.64021 26.2345 6.58649 26.1175 6.55779 25.9933C6.52909 25.8691 6.52601 25.7404 6.54875 25.615C6.915 23.5975 7.17875 21.5438 7.335 19.46C7.34154 19.369 7.32921 19.2776 7.29878 19.1916C7.26835 19.1055 7.22048 19.0267 7.15816 18.9601C7.09584 18.8934 7.02043 18.8403 6.93664 18.8042C6.85285 18.768 6.7625 18.7496 6.67125 18.75C6.2275 18.75 5.82625 18.9825 5.4725 19.2512C5.11 19.5275 4.68 19.6875 4.21875 19.6875C2.92375 19.6875 1.875 18.4287 1.875 16.875C1.875 15.3212 2.925 14.0625 4.21875 14.0625C4.68 14.0625 5.11 14.2225 5.4725 14.4987C5.82625 14.7675 6.2275 15 6.67125 15C6.77999 15.0005 6.88774 14.9794 6.98824 14.9378C7.08874 14.8963 7.17997 14.8352 7.25663 14.7581C7.33328 14.681 7.39384 14.5894 7.43476 14.4886C7.47568 14.3879 7.49616 14.28 7.495 14.1712C7.46765 12.1577 7.33832 10.1468 7.1075 8.14625C7.09114 8.00594 7.10671 7.86375 7.15303 7.7303C7.19934 7.59685 7.27522 7.47559 7.37499 7.37559C7.47475 7.27558 7.59582 7.19942 7.72916 7.15278C7.8625 7.10614 8.00465 7.09023 8.145 7.10625C9.82375 7.3 11.5238 7.42375 13.2413 7.47375C13.3483 7.47659 13.4548 7.45792 13.5545 7.41884C13.6542 7.37975 13.745 7.32105 13.8216 7.24621C13.8982 7.17137 13.959 7.08192 14.0004 6.98316C14.0417 6.8844 14.0629 6.77833 14.0625 6.67125Z" fill="white"/>
</g>
</svg>
