<svg width="25" height="25" viewBox="0 0 25 25" fill="none" xmlns="http://www.w3.org/2000/svg">
<g id="Icon/Outline/globe-alt">
<path id="Icon" d="M21.875 12.5C21.875 17.6777 17.6777 21.875 12.5 21.875M21.875 12.5C21.875 7.32233 17.6777 3.125 12.5 3.125M21.875 12.5H3.125M12.5 21.875C7.32233 21.875 3.125 17.6777 3.125 12.5M12.5 21.875C14.2259 21.875 15.625 17.6777 15.625 12.5C15.625 7.32233 14.2259 3.125 12.5 3.125M12.5 21.875C10.7741 21.875 9.375 17.6777 9.375 12.5C9.375 7.32233 10.7741 3.125 12.5 3.125M3.125 12.5C3.125 7.32233 7.32233 3.125 12.5 3.125" stroke="#FDFDFD" stroke-width="2" stroke-linecap="round" stroke-linejoin="round"/>
</g>
</svg>
