<svg width="30" height="30" viewBox="0 0 30 30" fill="none" xmlns="http://www.w3.org/2000/svg">
<g id="Frame">
<path id="Vector" fill-rule="evenodd" clip-rule="evenodd" d="M2.8125 15C2.8125 8.26875 8.26875 2.8125 15 2.8125C21.7313 2.8125 27.1875 8.26875 27.1875 15C27.1875 21.7313 21.7313 27.1875 15 27.1875C8.26875 27.1875 2.8125 21.7313 2.8125 15ZM13.695 13.1975C15.1275 12.4812 16.7413 13.7762 16.3525 15.33L15.4663 18.875L15.5188 18.85C15.739 18.7532 15.9881 18.7447 16.2144 18.8264C16.4407 18.9082 16.627 19.0738 16.7346 19.289C16.8422 19.5042 16.8629 19.7525 16.7925 19.9826C16.7221 20.2127 16.5659 20.4069 16.3562 20.525L16.3062 20.5525C14.8725 21.2687 13.2587 19.9738 13.6475 18.42L14.535 14.875L14.4825 14.9C14.3719 14.9615 14.25 14.9999 14.1242 15.013C13.9984 15.0261 13.8712 15.0136 13.7503 14.9763C13.6295 14.9389 13.5174 14.8775 13.4209 14.7957C13.3244 14.7139 13.2455 14.6134 13.1888 14.5003C13.1322 14.3872 13.099 14.2638 13.0913 14.1375C13.0836 14.0112 13.1016 13.8847 13.1441 13.7656C13.1866 13.6464 13.2528 13.5371 13.3386 13.4442C13.4245 13.3513 13.5283 13.2767 13.6438 13.225L13.695 13.1975ZM15 11.25C15.2486 11.25 15.4871 11.1512 15.6629 10.9754C15.8387 10.7996 15.9375 10.5611 15.9375 10.3125C15.9375 10.0639 15.8387 9.8254 15.6629 9.64959C15.4871 9.47377 15.2486 9.375 15 9.375C14.7514 9.375 14.5129 9.47377 14.3371 9.64959C14.1613 9.8254 14.0625 10.0639 14.0625 10.3125C14.0625 10.5611 14.1613 10.7996 14.3371 10.9754C14.5129 11.1512 14.7514 11.25 15 11.25Z" fill="white"/>
</g>
</svg>
