<svg width="31" height="21" viewBox="0 0 31 21" fill="none" xmlns="http://www.w3.org/2000/svg">
<g clip-path="url(#clip0_1116_804)">
<path d="M0.392944 3.01438V6.95188H30.9563V3.01438C30.9563 1.40999 29.6583 0.109378 28.0572 0.109378H3.29647C2.52681 0.108217 1.78827 0.413766 1.24363 0.958685C0.698989 1.5036 0.392943 2.24317 0.392944 3.01438Z" fill="#2FC179"/>
<path d="M0.392944 13.8206H30.9563V6.965H0.392944V13.8206Z" fill="white"/>
<path d="M0.392944 17.7669C0.392944 19.3713 1.69094 20.6719 3.2921 20.6719H28.0572C29.6583 20.6719 30.9563 19.3713 30.9563 17.7669V13.8294H0.392944V17.7669Z" fill="#B53F3F"/>
<path d="M18.2551 10.2244L18.0848 9.93126C18.0275 9.81994 17.9948 9.6976 17.9887 9.57251V9.23126C17.9827 9.11397 17.921 9.00666 17.8228 8.94251L17.539 8.78063C17.4333 8.7138 17.3437 8.62411 17.2771 8.51813L17.1111 8.23376C17.0471 8.13538 16.94 8.0736 16.823 8.06751H16.4824C16.3576 8.06147 16.2355 8.02864 16.1244 7.97126L15.8318 7.80501C15.7276 7.752 15.6043 7.752 15.5 7.80501L15.2162 7.97126C15.1055 8.02957 14.9832 8.06245 14.8582 8.06751H14.5307C14.4137 8.0736 14.3066 8.13538 14.2425 8.23376L14.0723 8.52688C14.0055 8.63277 13.916 8.72244 13.8103 8.78938L13.5178 8.96001C13.4196 9.02416 13.3579 9.13147 13.3518 9.24876V9.57688C13.3468 9.70213 13.314 9.82467 13.2558 9.93563L13.0899 10.22C13.0377 10.3247 13.0377 10.4478 13.0899 10.5525L13.2602 10.8456C13.3174 10.9569 13.3502 11.0793 13.3562 11.2044V11.5456C13.3623 11.6629 13.424 11.7702 13.5221 11.8344L13.8059 11.9963C13.9118 12.063 14.0013 12.1527 14.0679 12.2588L14.2338 12.5431C14.2978 12.6415 14.4049 12.7033 14.522 12.7094H14.8625C14.9874 12.7154 15.1095 12.7482 15.2206 12.8056L15.5131 12.9719C15.6174 13.0249 15.7407 13.0249 15.8449 12.9719L16.1287 12.8056C16.2394 12.747 16.3617 12.7141 16.4868 12.7094H16.8142C16.9313 12.7033 17.0384 12.6415 17.1024 12.5431L17.2727 12.25C17.3403 12.1447 17.4296 12.0552 17.5347 11.9875L17.8272 11.8169C17.9254 11.7527 17.987 11.6454 17.9931 11.5281V11.2C17.9982 11.0748 18.031 10.9522 18.0892 10.8413L18.2551 10.5569C18.308 10.4524 18.308 10.3289 18.2551 10.2244ZM17.2334 10.4913L17.133 10.6619C17.098 10.7296 17.0786 10.8044 17.0762 10.8806V11.0819C17.0725 11.1529 17.0352 11.2179 16.9758 11.2569L16.7968 11.3619C16.7335 11.4022 16.6798 11.456 16.6396 11.5194L16.5392 11.6988C16.5003 11.7583 16.4354 11.7957 16.3645 11.7994H16.1549C16.0803 11.8024 16.0073 11.8219 15.941 11.8563L15.7707 11.9569C15.7077 11.9896 15.6328 11.9896 15.5699 11.9569L15.3909 11.8563C15.3232 11.8214 15.2486 11.8019 15.1725 11.7994H14.9673C14.8964 11.7957 14.8316 11.7583 14.7927 11.6988L14.6923 11.5281C14.652 11.4647 14.5984 11.4109 14.5351 11.3706L14.3692 11.27C14.3098 11.231 14.2725 11.166 14.2687 11.095V10.8894C14.2654 10.8147 14.2461 10.7415 14.212 10.675L14.1116 10.4956C14.0797 10.4324 14.0797 10.3577 14.1116 10.2944L14.212 10.1238C14.2471 10.056 14.2665 9.98127 14.2687 9.90501V9.70813C14.2725 9.63709 14.3098 9.57209 14.3692 9.53313L14.5482 9.42813C14.6115 9.38783 14.6651 9.33406 14.7054 9.27063L14.8058 9.09126C14.8447 9.03174 14.9095 8.99436 14.9804 8.99063H15.1813C15.2559 8.98757 15.3289 8.96815 15.3952 8.93376L15.5655 8.83313C15.6287 8.80116 15.7032 8.80116 15.7664 8.83313L15.9454 8.93376C16.013 8.96878 16.0876 8.98821 16.1637 8.99063H16.3689C16.4398 8.99436 16.5047 9.03174 16.5435 9.09126L16.644 9.26188C16.6842 9.32531 16.7378 9.37908 16.8011 9.41938L16.9758 9.52001C17.0352 9.55896 17.0725 9.62397 17.0762 9.69501V9.90063C17.0794 9.97537 17.0988 10.0485 17.133 10.115L17.2334 10.2944C17.2653 10.3577 17.2653 10.4324 17.2334 10.4956V10.4913Z" fill="#B53F3F"/>
</g>
<defs>
<clipPath id="clip0_1116_804">
<rect width="31" height="21" fill="white"/>
</clipPath>
</defs>
</svg>
