<svg width="32" height="32" viewBox="0 0 32 32" fill="none" xmlns="http://www.w3.org/2000/svg">
<path fill-rule="evenodd" clip-rule="evenodd" d="M7.29331 7.29331C7.48081 7.10605 7.73497 7.00086 7.99997 7.00086C8.26498 7.00086 8.51914 7.10605 8.70664 7.29331L16 14.5866L23.2933 7.29331C23.3849 7.19506 23.4953 7.11626 23.6179 7.06161C23.7406 7.00695 23.873 6.97756 24.0073 6.97519C24.1416 6.97282 24.2749 6.99752 24.3994 7.04782C24.524 7.09811 24.6371 7.17297 24.732 7.26793C24.827 7.36289 24.9018 7.476 24.9521 7.60052C25.0024 7.72503 25.0271 7.85841 25.0248 7.99268C25.0224 8.12695 24.993 8.25937 24.9384 8.38203C24.8837 8.5047 24.8049 8.6151 24.7066 8.70665L17.4133 16L24.7066 23.2933C24.8049 23.3849 24.8837 23.4953 24.9384 23.6179C24.993 23.7406 25.0224 23.873 25.0248 24.0073C25.0271 24.1416 25.0024 24.2749 24.9521 24.3994C24.9018 24.524 24.827 24.6371 24.732 24.732C24.6371 24.827 24.524 24.9018 24.3994 24.9521C24.2749 25.0024 24.1416 25.0271 24.0073 25.0248C23.873 25.0224 23.7406 24.993 23.6179 24.9384C23.4953 24.8837 23.3849 24.8049 23.2933 24.7066L16 17.4133L8.70664 24.7066C8.51707 24.8833 8.26635 24.9795 8.00728 24.9749C7.74821 24.9703 7.50103 24.8654 7.31781 24.6821C7.13459 24.4989 7.02965 24.2517 7.02507 23.9927C7.0205 23.7336 7.11667 23.4829 7.29331 23.2933L14.5866 16L7.29331 8.70665C7.10604 8.51915 7.00085 8.26498 7.00085 7.99998C7.00085 7.73498 7.10604 7.48081 7.29331 7.29331Z" fill="white"/>
</svg>
