<svg width="32" height="32" viewBox="0 0 32 32" fill="none" xmlns="http://www.w3.org/2000/svg">
<path fill-rule="evenodd" clip-rule="evenodd" d="M4 9C4 8.73478 4.10536 8.48043 4.29289 8.29289C4.48043 8.10536 4.73478 8 5 8H27C27.2652 8 27.5196 8.10536 27.7071 8.29289C27.8946 8.48043 28 8.73478 28 9C28 9.26522 27.8946 9.51957 27.7071 9.70711C27.5196 9.89464 27.2652 10 27 10H5C4.73478 10 4.48043 9.89464 4.29289 9.70711C4.10536 9.51957 4 9.26522 4 9ZM4 16C4 15.7348 4.10536 15.4804 4.29289 15.2929C4.48043 15.1054 4.73478 15 5 15H27C27.2652 15 27.5196 15.1054 27.7071 15.2929C27.8946 15.4804 28 15.7348 28 16C28 16.2652 27.8946 16.5196 27.7071 16.7071C27.5196 16.8946 27.2652 17 27 17H5C4.73478 17 4.48043 16.8946 4.29289 16.7071C4.10536 16.5196 4 16.2652 4 16ZM4 23C4 22.7348 4.10536 22.4804 4.29289 22.2929C4.48043 22.1054 4.73478 22 5 22H27C27.2652 22 27.5196 22.1054 27.7071 22.2929C27.8946 22.4804 28 22.7348 28 23C28 23.2652 27.8946 23.5196 27.7071 23.7071C27.5196 23.8946 27.2652 24 27 24H5C4.73478 24 4.48043 23.8946 4.29289 23.7071C4.10536 23.5196 4 23.2652 4 23Z" fill="white"/>
</svg>
