<svg width="30" height="30" viewBox="0 0 30 30" fill="none" xmlns="http://www.w3.org/2000/svg">
<g id="Frame">
<path id="Vector" fill-rule="evenodd" clip-rule="evenodd" d="M11.6437 9.48C15.2437 4.85375 20.8687 1.875 27.1875 1.875C27.4361 1.875 27.6746 1.97377 27.8504 2.14959C28.0262 2.3254 28.125 2.56386 28.125 2.8125C28.125 9.1325 25.1462 14.7562 20.52 18.3575C20.7124 19.5628 20.641 20.7955 20.3107 21.9705C19.9805 23.1456 19.3992 24.2349 18.6071 25.1635C17.8149 26.0921 16.8307 26.8378 15.7224 27.349C14.6141 27.8603 13.4081 28.1251 12.1875 28.125C11.9389 28.125 11.7004 28.0262 11.5246 27.8504C11.3488 27.6746 11.25 27.4361 11.25 27.1875V22.0238C10.0349 21.0642 8.93657 19.9655 7.9775 18.75H2.8125C2.56386 18.75 2.3254 18.6512 2.14959 18.4754C1.97377 18.2996 1.875 18.0611 1.875 17.8125C1.8749 16.5918 2.13967 15.3856 2.65103 14.2772C3.16239 13.1688 3.90817 12.1846 4.83689 11.3924C5.76561 10.6002 6.85516 10.019 8.03034 9.68882C9.20553 9.35865 10.4384 9.2874 11.6437 9.48ZM18.75 8.4375C18.0041 8.4375 17.2887 8.73382 16.7613 9.26126C16.2338 9.78871 15.9375 10.5041 15.9375 11.25C15.9375 11.9959 16.2338 12.7113 16.7613 13.2387C17.2887 13.7662 18.0041 14.0625 18.75 14.0625C19.4959 14.0625 20.2113 13.7662 20.7387 13.2387C21.2662 12.7113 21.5625 11.9959 21.5625 11.25C21.5625 10.5041 21.2662 9.78871 20.7387 9.26126C20.2113 8.73382 19.4959 8.4375 18.75 8.4375Z" fill="white"/>
<path id="Vector_2" d="M6.57502 21.5525C6.67375 21.4789 6.75702 21.3866 6.82007 21.2808C6.88312 21.175 6.92471 21.0578 6.94247 20.9359C6.96023 20.814 6.95381 20.6898 6.92357 20.5705C6.89334 20.4511 6.83989 20.3388 6.76627 20.24C6.69264 20.1413 6.60029 20.058 6.49449 19.995C6.38869 19.9319 6.2715 19.8904 6.14962 19.8726C6.02775 19.8548 5.90357 19.8613 5.78417 19.8915C5.66477 19.9217 5.5525 19.9752 5.45376 20.0488C4.49488 20.7621 3.74928 21.724 3.29762 22.8304C2.84596 23.9369 2.70544 25.1457 2.89127 26.3263C2.92148 26.5229 3.01347 26.7048 3.15391 26.8457C3.29436 26.9866 3.47598 27.0792 3.67252 27.11C4.85318 27.2957 6.06214 27.155 7.1686 26.7031C8.27506 26.2513 9.23689 25.5054 9.95002 24.5463C10.026 24.4478 10.0816 24.3352 10.1137 24.215C10.1457 24.0948 10.1535 23.9695 10.1366 23.8462C10.1197 23.723 10.0785 23.6043 10.0153 23.4972C9.9521 23.3901 9.86821 23.2966 9.76852 23.2222C9.66883 23.1478 9.55533 23.094 9.43464 23.0639C9.31395 23.0338 9.18847 23.028 9.06552 23.0469C8.94258 23.0658 8.82462 23.1089 8.71851 23.1739C8.61241 23.2388 8.52029 23.3242 8.44752 23.425C8.0116 24.0113 7.44448 24.4874 6.79157 24.8151C6.13866 25.1429 5.41808 25.3132 4.68752 25.3125C4.68752 23.775 5.42752 22.4088 6.57502 21.5525Z" fill="white"/>
</g>
</svg>
