<svg width="30" height="30" viewBox="0 0 30 30" fill="none" xmlns="http://www.w3.org/2000/svg">
<g id="Frame">
<path id="Vector" d="M6.88376 5.06C7.2358 4.64916 7.67256 4.31935 8.16408 4.09323C8.6556 3.86711 9.19022 3.75002 9.73126 3.75H20.2688C20.8098 3.75002 21.3444 3.86711 21.8359 4.09323C22.3275 4.31935 22.7642 4.64916 23.1163 5.06L25.2688 7.57C24.9732 7.5231 24.6743 7.49969 24.375 7.5H5.62501C5.32126 7.5 5.02251 7.525 4.73126 7.57L6.88376 5.06Z" fill="white"/>
<path id="Vector_2" fill-rule="evenodd" clip-rule="evenodd" d="M1.875 13.125C1.875 12.1304 2.27009 11.1766 2.97335 10.4733C3.67661 9.77009 4.63044 9.375 5.625 9.375H24.375C25.3696 9.375 26.3234 9.77009 27.0267 10.4733C27.7299 11.1766 28.125 12.1304 28.125 13.125C28.125 14.1196 27.7299 15.0734 27.0267 15.7767C26.3234 16.4799 25.3696 16.875 24.375 16.875H5.625C4.63044 16.875 3.67661 16.4799 2.97335 15.7767C2.27009 15.0734 1.875 14.1196 1.875 13.125ZM20.625 13.125C20.625 13.3736 20.5262 13.6121 20.3504 13.7879C20.1746 13.9637 19.9361 14.0625 19.6875 14.0625C19.4389 14.0625 19.2004 13.9637 19.0246 13.7879C18.8488 13.6121 18.75 13.3736 18.75 13.125C18.75 12.8764 18.8488 12.6379 19.0246 12.4621C19.2004 12.2863 19.4389 12.1875 19.6875 12.1875C19.9361 12.1875 20.1746 12.2863 20.3504 12.4621C20.5262 12.6379 20.625 12.8764 20.625 13.125ZM23.4375 14.0625C23.6861 14.0625 23.9246 13.9637 24.1004 13.7879C24.2762 13.6121 24.375 13.3736 24.375 13.125C24.375 12.8764 24.2762 12.6379 24.1004 12.4621C23.9246 12.2863 23.6861 12.1875 23.4375 12.1875C23.1889 12.1875 22.9504 12.2863 22.7746 12.4621C22.5988 12.6379 22.5 12.8764 22.5 13.125C22.5 13.3736 22.5988 13.6121 22.7746 13.7879C22.9504 13.9637 23.1889 14.0625 23.4375 14.0625ZM5.625 18.75C4.63044 18.75 3.67661 19.1451 2.97335 19.8483C2.27009 20.5516 1.875 21.5054 1.875 22.5C1.875 23.4946 2.27009 24.4484 2.97335 25.1517C3.67661 25.8549 4.63044 26.25 5.625 26.25H24.375C25.3696 26.25 26.3234 25.8549 27.0267 25.1517C27.7299 24.4484 28.125 23.4946 28.125 22.5C28.125 21.5054 27.7299 20.5516 27.0267 19.8483C26.3234 19.1451 25.3696 18.75 24.375 18.75H5.625ZM19.6875 23.4375C19.9361 23.4375 20.1746 23.3387 20.3504 23.1629C20.5262 22.9871 20.625 22.7486 20.625 22.5C20.625 22.2514 20.5262 22.0129 20.3504 21.8371C20.1746 21.6613 19.9361 21.5625 19.6875 21.5625C19.4389 21.5625 19.2004 21.6613 19.0246 21.8371C18.8488 22.0129 18.75 22.2514 18.75 22.5C18.75 22.7486 18.8488 22.9871 19.0246 23.1629C19.2004 23.3387 19.4389 23.4375 19.6875 23.4375ZM24.375 22.5C24.375 22.7486 24.2762 22.9871 24.1004 23.1629C23.9246 23.3387 23.6861 23.4375 23.4375 23.4375C23.1889 23.4375 22.9504 23.3387 22.7746 23.1629C22.5988 22.9871 22.5 22.7486 22.5 22.5C22.5 22.2514 22.5988 22.0129 22.7746 21.8371C22.9504 21.6613 23.1889 21.5625 23.4375 21.5625C23.6861 21.5625 23.9246 21.6613 24.1004 21.8371C24.2762 22.0129 24.375 22.2514 24.375 22.5Z" fill="white"/>
</g>
</svg>
