<svg width="30" height="30" viewBox="0 0 30 30" fill="none" xmlns="http://www.w3.org/2000/svg">
<g id="Frame">
<path id="Vector" d="M2.8125 2.8125C2.56386 2.8125 2.3254 2.91127 2.14959 3.08709C1.97377 3.2629 1.875 3.50136 1.875 3.75C1.875 3.99864 1.97377 4.2371 2.14959 4.41291C2.3254 4.58873 2.56386 4.6875 2.8125 4.6875H4.545C4.7575 4.6875 4.9425 4.83 4.9975 5.035L8.195 17.025C7.19071 17.2867 6.30158 17.8741 5.66687 18.6952C5.03216 19.5162 4.68772 20.5247 4.6875 21.5625C4.6875 22.08 5.1075 22.5 5.625 22.5H25.3125C25.5611 22.5 25.7996 22.4012 25.9754 22.2254C26.1512 22.0496 26.25 21.8111 26.25 21.5625C26.25 21.3139 26.1512 21.0754 25.9754 20.8996C25.7996 20.7238 25.5611 20.625 25.3125 20.625H6.7225C6.91642 20.0765 7.27565 19.6017 7.7507 19.2659C8.22575 18.9301 8.79325 18.7498 9.375 18.75H23.3975C23.5731 18.75 23.7452 18.7007 23.8942 18.6076C24.0431 18.5146 24.163 18.3816 24.24 18.2238C25.6671 15.2951 26.903 12.2771 27.94 9.18875C27.981 9.06658 27.9963 8.93727 27.9851 8.8089C27.9738 8.68053 27.9362 8.55585 27.8747 8.44266C27.8131 8.32946 27.7288 8.23018 27.6272 8.15101C27.5255 8.07184 27.4086 8.01447 27.2837 7.9825C20.691 6.30144 13.9026 5.51232 7.1 5.63625L6.81 4.5525C6.67695 4.05343 6.38276 3.61228 5.97317 3.29762C5.56357 2.98297 5.06151 2.81242 4.545 2.8125H2.8125ZM4.6875 25.3125C4.6875 24.8152 4.88504 24.3383 5.23667 23.9867C5.58831 23.635 6.06522 23.4375 6.5625 23.4375C7.05978 23.4375 7.53669 23.635 7.88833 23.9867C8.23996 24.3383 8.4375 24.8152 8.4375 25.3125C8.4375 25.8098 8.23996 26.2867 7.88833 26.6383C7.53669 26.99 7.05978 27.1875 6.5625 27.1875C6.06522 27.1875 5.58831 26.99 5.23667 26.6383C4.88504 26.2867 4.6875 25.8098 4.6875 25.3125ZM20.625 25.3125C20.625 24.8152 20.8225 24.3383 21.1742 23.9867C21.5258 23.635 22.0027 23.4375 22.5 23.4375C22.9973 23.4375 23.4742 23.635 23.8258 23.9867C24.1775 24.3383 24.375 24.8152 24.375 25.3125C24.375 25.8098 24.1775 26.2867 23.8258 26.6383C23.4742 26.99 22.9973 27.1875 22.5 27.1875C22.0027 27.1875 21.5258 26.99 21.1742 26.6383C20.8225 26.2867 20.625 25.8098 20.625 25.3125Z" fill="white"/>
</g>
</svg>
