<svg width="25" height="25" viewBox="0 0 25 25" fill="none" xmlns="http://www.w3.org/2000/svg">
<path fill-rule="evenodd" clip-rule="evenodd" d="M9.37499 4.6875C9.54474 4.68753 9.70986 4.74286 9.84537 4.8451C9.98088 4.94734 10.0794 5.09094 10.126 5.25417L10.9729 8.21875C11.1552 8.85721 11.4973 9.43864 11.9668 9.90815C12.4363 10.3777 13.0178 10.7197 13.6562 10.9021L16.6208 11.749C16.7839 11.7957 16.9274 11.8943 17.0295 12.0298C17.1317 12.1653 17.1869 12.3303 17.1869 12.5C17.1869 12.6697 17.1317 12.8347 17.0295 12.9702C16.9274 13.1057 16.7839 13.2043 16.6208 13.251L13.6562 14.0979C13.0178 14.2803 12.4363 14.6223 11.9668 15.0918C11.4973 15.5614 11.1552 16.1428 10.9729 16.7812L10.126 19.7458C10.0793 19.909 9.98073 20.0524 9.84523 20.1546C9.70973 20.2567 9.54467 20.3119 9.37499 20.3119C9.2053 20.3119 9.04024 20.2567 8.90474 20.1546C8.76924 20.0524 8.67067 19.909 8.62394 19.7458L7.77707 16.7812C7.59473 16.1428 7.25265 15.5614 6.78314 15.0918C6.31363 14.6223 5.73219 14.2803 5.09374 14.0979L2.12915 13.251C1.96603 13.2043 1.82256 13.1057 1.72043 12.9702C1.61829 12.8347 1.56305 12.6697 1.56305 12.5C1.56305 12.3303 1.61829 12.1653 1.72043 12.0298C1.82256 11.8943 1.96603 11.7957 2.12915 11.749L5.09374 10.9021C5.73219 10.7197 6.31363 10.3777 6.78314 9.90815C7.25265 9.43864 7.59473 8.85721 7.77707 8.21875L8.62394 5.25417C8.67057 5.09094 8.76909 4.94734 8.9046 4.8451C9.04011 4.74286 9.20523 4.68753 9.37499 4.6875ZM18.75 1.5625C18.9243 1.5624 19.0936 1.62059 19.231 1.7278C19.3684 1.83501 19.466 1.98509 19.5083 2.15417L19.7771 3.23333C20.0229 4.2125 20.7875 4.97708 21.7667 5.22292L22.8458 5.49167C23.0152 5.53363 23.1657 5.6311 23.2732 5.76854C23.3808 5.90598 23.4392 6.07548 23.4392 6.25C23.4392 6.42452 23.3808 6.59402 23.2732 6.73146C23.1657 6.8689 23.0152 6.96637 22.8458 7.00833L21.7667 7.27708C20.7875 7.52292 20.0229 8.2875 19.7771 9.26667L19.5083 10.3458C19.4664 10.5152 19.3689 10.6657 19.2314 10.7733C19.094 10.8808 18.9245 10.9392 18.75 10.9392C18.5755 10.9392 18.406 10.8808 18.2685 10.7733C18.1311 10.6657 18.0336 10.5152 17.9917 10.3458L17.7229 9.26667C17.6027 8.78586 17.3541 8.34677 17.0037 7.99633C16.6532 7.64589 16.2141 7.39728 15.7333 7.27708L14.6542 7.00833C14.4847 6.96637 14.3343 6.8689 14.2267 6.73146C14.1192 6.59402 14.0607 6.42452 14.0607 6.25C14.0607 6.07548 14.1192 5.90598 14.2267 5.76854C14.3343 5.6311 14.4847 5.53363 14.6542 5.49167L15.7333 5.22292C16.2141 5.10272 16.6532 4.85411 17.0037 4.50367C17.3541 4.15323 17.6027 3.71414 17.7229 3.23333L17.9917 2.15417C18.0339 1.98509 18.1316 1.83501 18.269 1.7278C18.4064 1.62059 18.5757 1.5624 18.75 1.5625ZM17.1875 15.625C17.3516 15.6249 17.5115 15.6765 17.6446 15.7724C17.7778 15.8683 17.8773 16.0037 17.9292 16.1594L18.3396 17.3917C18.4958 17.8573 18.8604 18.224 19.3271 18.3792L20.5594 18.7906C20.7145 18.8427 20.8494 18.9422 20.945 19.0751C21.0406 19.208 21.092 19.3676 21.092 19.5312C21.092 19.6949 21.0406 19.8545 20.945 19.9874C20.8494 20.1203 20.7145 20.2198 20.5594 20.2719L19.3271 20.6833C18.8614 20.8396 18.4948 21.2042 18.3396 21.6708L17.9281 22.9031C17.876 23.0583 17.7765 23.1932 17.6436 23.2887C17.5107 23.3843 17.3512 23.4357 17.1875 23.4357C17.0238 23.4357 16.8643 23.3843 16.7314 23.2887C16.5985 23.1932 16.499 23.0583 16.4469 22.9031L16.0354 21.6708C15.9587 21.4409 15.8295 21.232 15.6581 21.0606C15.4867 20.8892 15.2778 20.7601 15.0479 20.6833L13.8156 20.2719C13.6604 20.2198 13.5255 20.1203 13.43 19.9874C13.3344 19.8545 13.283 19.6949 13.283 19.5312C13.283 19.3676 13.3344 19.208 13.43 19.0751C13.5255 18.9422 13.6604 18.8427 13.8156 18.7906L15.0479 18.3792C15.5135 18.2229 15.8802 17.8583 16.0354 17.3917L16.4469 16.1594C16.4987 16.0039 16.598 15.8686 16.731 15.7727C16.8639 15.6768 17.0236 15.6251 17.1875 15.625Z" fill="#848D97"/>
</svg>
