<svg width="31" height="21" viewBox="0 0 31 21" fill="none" xmlns="http://www.w3.org/2000/svg">
<g clip-path="url(#clip0_1116_815)">
<path d="M3.05635 20.8294H28.2799C29.2851 20.7489 30.1763 20.1507 30.6333 19.25H0.698608C1.15636 20.152 2.04956 20.7503 3.05635 20.8294Z" fill="#B53F3F"/>
<path d="M0.397339 17.6662V18.2525C0.435606 18.5988 0.536199 18.9353 0.69424 19.2456H30.6245C30.7826 18.9353 30.8832 18.5988 30.9214 18.2525V17.6662H0.397339Z" fill="white"/>
<path d="M30.9258 16.0869H0.397339V17.6662H30.9258V16.0869Z" fill="#B53F3F"/>
<path d="M30.9258 14.5075H0.397339V16.0869H30.9258V14.5075Z" fill="white"/>
<path d="M30.9258 12.9281H0.397339V14.5075H30.9258V12.9281Z" fill="#B53F3F"/>
<path d="M30.9258 11.3487H0.397339V12.9281H30.9258V11.3487Z" fill="white"/>
<path d="M30.9258 9.76936H0.397339V11.3487H30.9258V9.76936Z" fill="#B53F3F"/>
<path d="M30.9258 8.18999H0.397339V9.76937H30.9258V8.18999Z" fill="white"/>
<path d="M30.9258 6.61062H0.397339V8.18999H30.9258V6.61062Z" fill="#B53F3F"/>
<path d="M30.9258 5.02687H0.397339V6.60625H30.9258V5.02687Z" fill="white"/>
<path d="M30.9258 3.44749H0.397339V5.02687H30.9258V3.44749Z" fill="#B53F3F"/>
<path d="M30.9258 3.44749V2.86124C30.8881 2.51344 30.7875 2.17544 30.6289 1.86374H0.698635C0.540089 2.17544 0.439483 2.51344 0.401733 2.86124V3.44749H30.9258Z" fill="white"/>
<path d="M28.2755 0.288742H3.05638C2.05119 0.369264 1.15996 0.967376 0.703003 1.86812H30.6333C30.1755 0.966117 29.2823 0.367794 28.2755 0.288742Z" fill="#B53F3F"/>
<path d="M14.8844 11.3487V0.288742H3.05635C1.6706 0.399904 0.558657 1.48105 0.406067 2.86562V11.3487H14.8844Z" fill="#3A8DE5"/>
<path d="M2.19187 1.62749L2.07398 1.99499H1.68976L1.99976 2.21812L1.88187 2.58562L2.19187 2.35812L2.50187 2.58562L2.38398 2.21812L2.69398 1.99499H2.30976L2.19187 1.62749Z" fill="white"/>
<path d="M2.19187 3.48249L2.07398 3.84999H1.68976L1.99976 4.07749L1.88187 4.44062L2.19187 4.21749L2.50187 4.44062L2.38398 4.07749L2.69398 3.84999H2.30976L2.19187 3.48249Z" fill="white"/>
<path d="M2.19187 5.33749L2.07398 5.70499H1.68976L1.99976 5.93249L1.88187 6.29999L2.19187 6.07249L2.50187 6.29999L2.38398 5.93249L2.69398 5.70499H2.30976L2.19187 5.33749Z" fill="white"/>
<path d="M2.19187 7.19687L2.07398 7.55999H1.68976L1.99976 7.78749L1.88187 8.15499L2.19187 7.92749L2.50187 8.15499L2.38398 7.78749L2.69398 7.55999H2.30976L2.19187 7.19687Z" fill="white"/>
<path d="M2.30976 9.41499L2.19187 9.05186L2.07398 9.41499H1.68976L1.99976 9.64249L1.88187 10.01L2.19187 9.78249L2.50187 10.01L2.38398 9.64249L2.69398 9.41499H2.30976Z" fill="white"/>
<path d="M3.27903 2.55499L3.16114 2.92249H2.77692L3.08692 3.14999L2.96903 3.51312L3.27903 3.28562L3.5934 3.51312L3.47551 3.14999L3.78551 2.92249H3.40128L3.27903 2.55499Z" fill="white"/>
<path d="M3.27903 4.40999L3.16114 4.77749H2.77692L3.08692 5.00499L2.96903 5.36811L3.27903 5.14499L3.5934 5.36811L3.47551 5.00499L3.78551 4.77749H3.40128L3.27903 4.40999Z" fill="white"/>
<path d="M3.27903 6.26936L3.16114 6.63249H2.77692L3.08692 6.85999L2.96903 7.22749L3.27903 6.99999L3.5934 7.22749L3.47551 6.85999L3.78551 6.63249H3.40128L3.27903 6.26936Z" fill="white"/>
<path d="M3.40128 8.48749L3.27903 8.12437L3.16114 8.48749H2.77692L3.08692 8.71499L2.96903 9.08249L3.27903 8.85499L3.5934 9.08249L3.47551 8.71499L3.78551 8.48749H3.40128Z" fill="white"/>
<path d="M4.37058 1.62749L4.25269 1.99499H3.86847L4.17847 2.21812L4.06058 2.58562L4.37058 2.35812L4.68058 2.58562L4.56269 2.21812L4.87269 1.99499H4.48847L4.37058 1.62749Z" fill="white"/>
<path d="M4.37058 3.48249L4.25269 3.84999H3.86847L4.17847 4.07749L4.06058 4.44062L4.37058 4.21749L4.68058 4.44062L4.56269 4.07749L4.87269 3.84999H4.48847L4.37058 3.48249Z" fill="white"/>
<path d="M4.37058 5.33749L4.25269 5.70499H3.86847L4.17847 5.93249L4.06058 6.29999L4.37058 6.07249L4.68058 6.29999L4.56269 5.93249L4.87269 5.70499H4.48847L4.37058 5.33749Z" fill="white"/>
<path d="M4.37058 7.19687L4.25269 7.55999H3.86847L4.17847 7.78749L4.06058 8.15499L4.37058 7.92749L4.68058 8.15499L4.56269 7.78749L4.87269 7.55999H4.48847L4.37058 7.19687Z" fill="white"/>
<path d="M4.48847 9.41499L4.37058 9.05186L4.25269 9.41499H3.86847L4.17847 9.64249L4.06058 10.01L4.37058 9.78249L4.68058 10.01L4.56269 9.64249L4.87269 9.41499H4.48847Z" fill="white"/>
<path d="M5.45774 2.55499L5.33985 2.92249H4.95563L5.26563 3.14999L5.14774 3.51312L5.45774 3.28562L5.77211 3.51312L5.65422 3.14999L5.96422 2.92249H5.57999L5.45774 2.55499Z" fill="white"/>
<path d="M5.45774 4.40999L5.33985 4.77749H4.95563L5.26563 5.00499L5.14774 5.36811L5.45774 5.14499L5.77211 5.36811L5.65422 5.00499L5.96422 4.77749H5.57999L5.45774 4.40999Z" fill="white"/>
<path d="M5.45774 6.26936L5.33985 6.63249H4.95563L5.26563 6.85999L5.14774 7.22749L5.45774 6.99999L5.77211 7.22749L5.65422 6.85999L5.96422 6.63249H5.57999L5.45774 6.26936Z" fill="white"/>
<path d="M5.57999 8.48749L5.45774 8.12437L5.33985 8.48749H4.95563L5.26563 8.71499L5.14774 9.08249L5.45774 8.85499L5.77211 9.08249L5.65422 8.71499L5.96422 8.48749H5.57999Z" fill="white"/>
<path d="M6.54929 1.62749L6.43141 1.99499H6.04718L6.35718 2.21812L6.23929 2.58562L6.54929 2.35812L6.85929 2.58562L6.74141 2.21812L7.05141 1.99499H6.66718L6.54929 1.62749Z" fill="white"/>
<path d="M6.54929 3.48249L6.43141 3.84999H6.04718L6.35718 4.07749L6.23929 4.44062L6.54929 4.21749L6.85929 4.44062L6.74141 4.07749L7.05141 3.84999H6.66718L6.54929 3.48249Z" fill="white"/>
<path d="M6.54929 5.33749L6.43141 5.70499H6.04718L6.35718 5.93249L6.23929 6.29999L6.54929 6.07249L6.85929 6.29999L6.74141 5.93249L7.05141 5.70499H6.66718L6.54929 5.33749Z" fill="white"/>
<path d="M6.54929 7.19687L6.43141 7.55999H6.04718L6.35718 7.78749L6.23929 8.15499L6.54929 7.92749L6.85929 8.15499L6.74141 7.78749L7.05141 7.55999H6.66718L6.54929 7.19687Z" fill="white"/>
<path d="M6.66718 9.41499L6.54929 9.05186L6.43141 9.41499H6.04718L6.35718 9.64249L6.23929 10.01L6.54929 9.78249L6.85929 10.01L6.74141 9.64249L7.05141 9.41499H6.66718Z" fill="white"/>
<path d="M7.63651 2.55499L7.51862 2.92249H7.1344L7.4444 3.14999L7.32651 3.51312L7.63651 3.28562L7.95088 3.51312L7.82862 3.14999L8.14299 2.92249H7.75877L7.63651 2.55499Z" fill="white"/>
<path d="M7.63651 4.40999L7.51862 4.77749H7.1344L7.4444 5.00499L7.32651 5.36811L7.63651 5.14499L7.95088 5.36811L7.82862 5.00499L8.14299 4.77749H7.75877L7.63651 4.40999Z" fill="white"/>
<path d="M7.63651 6.26936L7.51862 6.63249H7.1344L7.4444 6.85999L7.32651 7.22749L7.63651 6.99999L7.95088 7.22749L7.82862 6.85999L8.14299 6.63249H7.75877L7.63651 6.26936Z" fill="white"/>
<path d="M7.75877 8.48749L7.63651 8.12437L7.51862 8.48749H7.1344L7.4444 8.71499L7.32651 9.08249L7.63651 8.85499L7.95088 9.08249L7.82862 8.71499L8.14299 8.48749H7.75877Z" fill="white"/>
<path d="M8.72806 1.62749L8.61018 1.99499H8.22595L8.53595 2.21812L8.41807 2.58562L8.72806 2.35812L9.03807 2.58562L8.92018 2.21812L9.23018 1.99499H8.84595L8.72806 1.62749Z" fill="white"/>
<path d="M8.72806 3.48249L8.61018 3.84999H8.22595L8.53595 4.07749L8.41807 4.44062L8.72806 4.21749L9.03807 4.44062L8.92018 4.07749L9.23018 3.84999H8.84595L8.72806 3.48249Z" fill="white"/>
<path d="M8.72806 5.33749L8.61018 5.70499H8.22595L8.53595 5.93249L8.41807 6.29999L8.72806 6.07249L9.03807 6.29999L8.92018 5.93249L9.23018 5.70499H8.84595L8.72806 5.33749Z" fill="white"/>
<path d="M8.72806 7.19687L8.61018 7.55999H8.22595L8.53595 7.78749L8.41807 8.15499L8.72806 7.92749L9.03807 8.15499L8.92018 7.78749L9.23018 7.55999H8.84595L8.72806 7.19687Z" fill="white"/>
<path d="M8.84595 9.41499L8.72806 9.05186L8.61018 9.41499H8.22595L8.53595 9.64249L8.41807 10.01L8.72806 9.78249L9.03807 10.01L8.92018 9.64249L9.23018 9.41499H8.84595Z" fill="white"/>
<path d="M9.81522 2.55499L9.69734 2.92249H9.31311L9.62311 3.14999L9.50522 3.51312L9.81522 3.28562L10.1296 3.51312L10.0073 3.14999L10.3217 2.92249H9.93748L9.81522 2.55499Z" fill="white"/>
<path d="M9.81522 4.40999L9.69734 4.77749H9.31311L9.62311 5.00499L9.50522 5.36811L9.81522 5.14499L10.1296 5.36811L10.0073 5.00499L10.3217 4.77749H9.93748L9.81522 4.40999Z" fill="white"/>
<path d="M9.81522 6.26936L9.69734 6.63249H9.31311L9.62311 6.85999L9.50522 7.22749L9.81522 6.99999L10.1296 7.22749L10.0073 6.85999L10.3217 6.63249H9.93748L9.81522 6.26936Z" fill="white"/>
<path d="M9.93748 8.48749L9.81522 8.12437L9.69734 8.48749H9.31311L9.62311 8.71499L9.50522 9.08249L9.81522 8.85499L10.1296 9.08249L10.0073 8.71499L10.3217 8.48749H9.93748Z" fill="white"/>
<path d="M10.9068 1.62749L10.7889 1.99499H10.4047L10.7147 2.21812L10.5968 2.58562L10.9068 2.35812L11.2168 2.58562L11.0989 2.21812L11.4089 1.99499H11.0247L10.9068 1.62749Z" fill="white"/>
<path d="M10.9068 3.48249L10.7889 3.84999H10.4047L10.7147 4.07749L10.5968 4.44062L10.9068 4.21749L11.2168 4.44062L11.0989 4.07749L11.4089 3.84999H11.0247L10.9068 3.48249Z" fill="white"/>
<path d="M10.9068 5.33749L10.7889 5.70499H10.4047L10.7147 5.93249L10.5968 6.29999L10.9068 6.07249L11.2168 6.29999L11.0989 5.93249L11.4089 5.70499H11.0247L10.9068 5.33749Z" fill="white"/>
<path d="M10.9068 7.19687L10.7889 7.55999H10.4047L10.7147 7.78749L10.5968 8.15499L10.9068 7.92749L11.2168 8.15499L11.0989 7.78749L11.4089 7.55999H11.0247L10.9068 7.19687Z" fill="white"/>
<path d="M11.0247 9.41499L10.9068 9.05186L10.7889 9.41499H10.4047L10.7147 9.64249L10.5968 10.01L10.9068 9.78249L11.2168 10.01L11.0989 9.64249L11.4089 9.41499H11.0247Z" fill="white"/>
<path d="M11.9939 2.55499L11.876 2.92249H11.4918L11.8018 3.14999L11.6839 3.51312L11.9939 3.28562L12.3083 3.51312L12.186 3.14999L12.5004 2.92249H12.1162L11.9939 2.55499Z" fill="white"/>
<path d="M11.9939 4.40999L11.876 4.77749H11.4918L11.8018 5.00499L11.6839 5.36811L11.9939 5.14499L12.3083 5.36811L12.186 5.00499L12.5004 4.77749H12.1162L11.9939 4.40999Z" fill="white"/>
<path d="M11.9939 6.26936L11.876 6.63249H11.4918L11.8018 6.85999L11.6839 7.22749L11.9939 6.99999L12.3083 7.22749L12.186 6.85999L12.5004 6.63249H12.1162L11.9939 6.26936Z" fill="white"/>
<path d="M12.1162 8.48749L11.9939 8.12437L11.876 8.48749H11.4918L11.8018 8.71499L11.6839 9.08249L11.9939 8.85499L12.3083 9.08249L12.186 8.71499L12.5004 8.48749H12.1162Z" fill="white"/>
<path d="M12.8934 2.21812L12.7755 2.58562L13.0855 2.35812L13.3955 2.58562L13.2776 2.21812L13.5876 1.99499H13.2034L13.0855 1.62749L12.9676 1.99499H12.5834L12.8934 2.21812Z" fill="white"/>
<path d="M13.0855 3.48249L12.9676 3.84999H12.5834L12.8934 4.07749L12.7755 4.44062L13.0855 4.21749L13.3955 4.44062L13.2776 4.07749L13.5876 3.84999H13.2034L13.0855 3.48249Z" fill="white"/>
<path d="M13.0855 5.33749L12.9676 5.70499H12.5834L12.8934 5.93249L12.7755 6.29999L13.0855 6.07249L13.3955 6.29999L13.2776 5.93249L13.5876 5.70499H13.2034L13.0855 5.33749Z" fill="white"/>
<path d="M13.0855 7.19687L12.9676 7.55999H12.5834L12.8934 7.78749L12.7755 8.15499L13.0855 7.92749L13.3955 8.15499L13.2776 7.78749L13.5876 7.55999H13.2034L13.0855 7.19687Z" fill="white"/>
<path d="M13.2034 9.41499L13.0855 9.05186L12.9676 9.41499H12.5834L12.8934 9.64249L12.7755 10.01L13.0855 9.78249L13.3955 10.01L13.2776 9.64249L13.5876 9.41499H13.2034Z" fill="white"/>
</g>
<defs>
<clipPath id="clip0_1116_815">
<rect width="31" height="21" fill="white"/>
</clipPath>
</defs>
</svg>
