<svg width="25" height="25" viewBox="0 0 25 25" fill="none" xmlns="http://www.w3.org/2000/svg">
<path fill-rule="evenodd" clip-rule="evenodd" d="M7.8125 6.25C7.8125 5.0068 8.30636 3.81451 9.18544 2.93544C10.0645 2.05636 11.2568 1.5625 12.5 1.5625C13.7432 1.5625 14.9355 2.05636 15.8146 2.93544C16.6936 3.81451 17.1875 5.0068 17.1875 6.25C17.1875 7.4932 16.6936 8.68549 15.8146 9.56456C14.9355 10.4436 13.7432 10.9375 12.5 10.9375C11.2568 10.9375 10.0645 10.4436 9.18544 9.56456C8.30636 8.68549 7.8125 7.4932 7.8125 6.25ZM3.90729 20.9427C3.94242 18.687 4.86317 16.5355 6.47079 14.9527C8.07842 13.3699 10.244 12.4828 12.5 12.4828C14.756 12.4828 16.9216 13.3699 18.5292 14.9527C20.1368 16.5355 21.0576 18.687 21.0927 20.9427C21.0954 21.0946 21.0538 21.2439 20.973 21.3725C20.8921 21.5011 20.7755 21.6033 20.6375 21.6667C18.0845 22.8372 15.3085 23.4413 12.5 23.4375C9.59792 23.4375 6.84062 22.8042 4.3625 21.6667C4.22446 21.6033 4.10789 21.5011 4.02704 21.3725C3.9462 21.2439 3.90458 21.0946 3.90729 20.9427Z" fill="white"/>
</svg>
