<svg width="30" height="30" viewBox="0 0 30 30" fill="none" xmlns="http://www.w3.org/2000/svg">
<g id="Frame">
<path id="Vector" d="M14.0625 5.66626C12.1039 4.41172 9.82595 3.74657 7.5 3.75001C6.11624 3.7486 4.74237 3.98321 3.4375 4.44376C3.25474 4.50838 3.0965 4.62806 2.98457 4.78633C2.87264 4.94459 2.81253 5.13367 2.8125 5.32751V23.14C2.81252 23.29 2.84852 23.4378 2.91748 23.5709C2.98643 23.7041 3.08633 23.8188 3.20879 23.9054C3.33125 23.992 3.47268 24.0479 3.62123 24.0685C3.76978 24.0891 3.92111 24.0738 4.0625 24.0238C5.16667 23.6343 6.32917 23.4361 7.5 23.4375C9.99375 23.4375 12.2787 24.3213 14.0625 25.795V5.66626ZM15.9375 25.795C17.783 24.2677 20.1045 23.4337 22.5 23.4375C23.7075 23.4375 24.8625 23.645 25.9375 24.025C26.079 24.075 26.2304 24.0904 26.3791 24.0697C26.5277 24.049 26.6692 23.993 26.7917 23.9063C26.9142 23.8196 27.0141 23.7047 27.083 23.5714C27.1518 23.438 27.1877 23.2901 27.1875 23.14V5.32751C27.1875 5.13367 27.1274 4.94459 27.0154 4.78633C26.9035 4.62806 26.7453 4.50838 26.5625 4.44376C25.2576 3.98321 23.8838 3.7486 22.5 3.75001C20.174 3.74657 17.8961 4.41172 15.9375 5.66626V25.795Z" fill="white"/>
</g>
</svg>
