<svg width="55" height="32" viewBox="0 0 55 32" fill="none" xmlns="http://www.w3.org/2000/svg">
<path d="M18.5547 24H17.5195V28.5703C17.5195 28.5833 17.513 28.5898 17.5 28.5898H10.4297V24H1.30859C1.29557 24 1.28906 23.9935 1.28906 23.9805V7.78906C1.28906 7.77604 1.29557 7.76953 1.30859 7.76953H17.5195V16.9102H18.5547V24ZM8.37891 16.9102H10.4492V14.8398H8.37891V16.9102ZM20 5.60938V3.34375H21.9336V1.03906C21.9336 1.02604 21.9401 1.01953 21.9531 1.01953H26.2305C26.2435 1.01953 26.25 1.02604 26.25 1.03906V5.58984C26.25 5.60286 26.2435 5.60938 26.2305 5.60938H20ZM20.625 31.2656C20.612 31.2656 20.6055 31.2591 20.6055 31.2461V26.207C20.6055 26.194 20.612 26.1875 20.625 26.1875H25.6641C25.6771 26.1875 25.6836 26.194 25.6836 26.207V31.2461C25.6836 31.2591 25.6771 31.2656 25.6641 31.2656H20.625ZM17.5781 24V16.9102H19.5898V7.76953H26.6992V23.9805C26.6992 23.9935 26.6927 24 26.6797 24H17.5781ZM35.7617 7.76953V28.5703C35.7617 28.5833 35.7552 28.5898 35.7422 28.5898H28.6719V7.76953H35.7617ZM37.7539 24C37.7409 24 37.7344 23.9935 37.7344 23.9805V3.21875C37.7344 3.20573 37.7409 3.19922 37.7539 3.19922H44.8242V16.9102H45.8594V24H37.7539ZM46.1719 29.9375C46.1589 29.9375 46.1523 29.931 46.1523 29.918V26.168C46.1523 26.1549 46.1589 26.1484 46.1719 26.1484H49.9414C49.9544 26.1484 49.9609 26.1484 49.9609 26.1484H54.7461C54.7591 26.1484 54.7656 26.1549 54.7656 26.168V29.918C54.7656 29.931 54.7591 29.9375 54.7461 29.9375H49.9609C49.9479 29.9375 49.9414 29.9375 49.9414 29.9375H46.1719ZM44.8828 24V16.9102H46.8945V7.76953H54.0039V23.9805C54.0039 23.9935 53.9974 24 53.9844 24H44.8828Z" fill="#FDFDFD"/>
</svg>
