<svg width="55" height="55" viewBox="0 0 55 55" fill="none" xmlns="http://www.w3.org/2000/svg">
<path d="M18.5547 35H17.5195V39.5703C17.5195 39.5833 17.513 39.5898 17.5 39.5898H10.4297V35H1.30859C1.29557 35 1.28906 34.9935 1.28906 34.9805V18.7891C1.28906 18.776 1.29557 18.7695 1.30859 18.7695H17.5195V27.9102H18.5547V35ZM8.37891 27.9102H10.4492V25.8398H8.37891V27.9102ZM20 16.6094V14.3438H21.9336V12.0391C21.9336 12.026 21.9401 12.0195 21.9531 12.0195H26.2305C26.2435 12.0195 26.25 12.026 26.25 12.0391V16.5898C26.25 16.6029 26.2435 16.6094 26.2305 16.6094H20ZM20.625 42.2656C20.612 42.2656 20.6055 42.2591 20.6055 42.2461V37.207C20.6055 37.194 20.612 37.1875 20.625 37.1875H25.6641C25.6771 37.1875 25.6836 37.194 25.6836 37.207V42.2461C25.6836 42.2591 25.6771 42.2656 25.6641 42.2656H20.625ZM17.5781 35V27.9102H19.5898V18.7695H26.6992V34.9805C26.6992 34.9935 26.6927 35 26.6797 35H17.5781ZM35.7617 18.7695V39.5703C35.7617 39.5833 35.7552 39.5898 35.7422 39.5898H28.6719V18.7695H35.7617ZM37.7539 35C37.7409 35 37.7344 34.9935 37.7344 34.9805V14.2188C37.7344 14.2057 37.7409 14.1992 37.7539 14.1992H44.8242V27.9102H45.8594V35H37.7539ZM46.1719 40.9375C46.1589 40.9375 46.1523 40.931 46.1523 40.918V37.168C46.1523 37.1549 46.1589 37.1484 46.1719 37.1484H49.9414C49.9544 37.1484 49.9609 37.1484 49.9609 37.1484H54.7461C54.7591 37.1484 54.7656 37.1549 54.7656 37.168V40.918C54.7656 40.931 54.7591 40.9375 54.7461 40.9375H49.9609C49.9479 40.9375 49.9414 40.9375 49.9414 40.9375H46.1719ZM44.8828 35V27.9102H46.8945V18.7695H54.0039V34.9805C54.0039 34.9935 53.9974 35 53.9844 35H44.8828Z" fill="white"/>
</svg>
